<?xml version="1.0" encoding="utf-8"?>
<!-- Generator: Adobe Illustrator 28.3.0, SVG Export Plug-In . SVG Version: 6.00 Build 0)  -->
<svg version="1.1" id="Layer_1" xmlns="http://www.w3.org/2000/svg" xmlns:xlink="http://www.w3.org/1999/xlink" x="0px" y="0px"
	 viewBox="0 0 16 16" style="enable-background:new 0 0 16 16;" xml:space="preserve">
<style type="text/css">
	.st0{fill:#FFFFFF;}
	.st1{fill:#0076B8;}
	.st2{fill:#E7304B;}
	.st3{fill:#020203;}
</style>
<g>
	<path class="st0" d="M8,15.81c4.3,0,7.78-3.5,7.78-7.81c0-4.31-3.48-7.81-7.78-7.81S0.22,3.69,0.22,8C0.22,12.31,3.7,15.81,8,15.81
		"/>
	<path class="st1" d="M13.39,13.39c-1.44,1.44-3.35,2.23-5.39,2.23c-2.03,0-3.95-0.79-5.39-2.23C1.17,11.95,0.38,10.03,0.38,8
		c0-2.03,0.79-3.95,2.23-5.39C4.05,1.17,5.97,0.38,8,0.38c2.03,0,3.95,0.79,5.39,2.23c1.44,1.44,2.23,3.35,2.23,5.39
		C15.62,10.03,14.83,11.95,13.39,13.39 M13.52,2.48C12.05,1.01,10.09,0.19,8,0.19c-2.09,0-4.05,0.81-5.52,2.29
		C1.01,3.95,0.19,5.91,0.19,8c0,2.09,0.81,4.05,2.29,5.52c1.47,1.47,3.43,2.29,5.52,2.29c2.09,0,4.05-0.81,5.52-2.29
		c1.47-1.47,2.29-3.43,2.29-5.52C15.81,5.91,14.99,3.95,13.52,2.48"/>
	<path class="st1" d="M13.1,13.13c-1.36,1.36-3.17,2.11-5.1,2.11c-1.93,0-3.74-0.75-5.1-2.11c-1.36-1.36-2.11-3.17-2.11-5.1
		c0-1.93,0.75-3.74,2.11-5.1C4.26,1.57,6.07,0.82,8,0.82c1.93,0,3.74,0.75,5.1,2.11c1.36,1.36,2.11,3.17,2.11,5.1
		C15.21,9.96,14.46,11.77,13.1,13.13 M13.23,2.8C11.83,1.4,9.98,0.63,8,0.63c-1.98,0-3.83,0.77-5.23,2.17
		C1.37,4.2,0.6,6.06,0.6,8.03c0,1.98,0.77,3.83,2.17,5.23c1.4,1.4,3.26,2.17,5.23,2.17c1.98,0,3.83-0.77,5.23-2.17
		c1.4-1.4,2.17-3.26,2.17-5.23C15.4,6.06,14.63,4.2,13.23,2.8"/>
	<polygon class="st1" points="7.64,4.62 7.75,4.62 7.75,5.62 7.88,5.62 7.88,4.5 7.49,4.5 7.49,5.62 7.64,5.62 	"/>
	<polygon class="st1" points="8.12,5.62 8.25,5.62 8.25,4.62 8.36,4.62 8.36,5.62 8.51,5.62 8.51,4.5 8.12,4.5 	"/>
	<rect x="7.64" y="4.62" class="st0" width="0.11" height="1"/>
	<rect x="8.25" y="4.62" class="st0" width="0.11" height="1"/>
	<path class="st1" d="M8.49,11.4c0.01,0.01,0.03,0,0.02-0.01l-0.01-0.04c0-0.01,0.01-0.02,0.02-0.01l0.03,0.02
		c0.01,0.01,0.03-0.01,0.02-0.02L8.57,11.3c0-0.01,0-0.02,0.02-0.02l0.04,0.01c0.01,0,0.02-0.01,0.01-0.02l-0.01-0.02
		c-0.01-0.01-0.01-0.02,0-0.02c0,0,0.01-0.01,0.01-0.01c0,0,0.01-0.01,0.02-0.01l0.01,0c0.01,0,0.02-0.01,0.01-0.02
		c0,0,0-0.01,0-0.01l1.87-1.75c0,0,0,0,0,0l-0.27-0.27c0,0,0,0,0,0l-1.74,1.62c-0.01,0.01-0.02,0-0.02-0.01v-4.5H8.36v4.79
		c0,0.02,0.01,0.03,0.01,0.03c0,0,0.01,0.01,0.01,0.01c0,0,0,0,0.01,0c0,0,0.01,0,0.02,0c0.01,0,0.02,0,0.03-0.01l0.92-0.86
		l0.94-0.88l0,0h0l0.04,0.04l0.02,0.02l0.01,0.01l-1.86,1.74c-0.02,0.02-0.05,0.04-0.08,0.04c0,0,0,0,0,0c0,0-0.01,0-0.01,0
		c0,0-0.01,0-0.01,0c0,0,0,0,0,0c-0.01,0-0.01,0-0.02,0c-0.01,0-0.03,0-0.04-0.01c0,0,0,0,0,0c0,0,0,0,0,0
		c-0.01,0-0.01-0.01-0.01-0.01c-0.02-0.01-0.03-0.02-0.04-0.03c0,0,0,0,0,0c0,0-0.01-0.01-0.01-0.01c-0.01-0.01-0.01-0.02-0.02-0.03
		c0,0,0-0.01,0-0.01c-0.01-0.02-0.01-0.03-0.01-0.05V6.26H8.12v4.67c0,0.01,0,0.01-0.01,0.01c0,0-0.01,0-0.01,0.01c0,0,0,0,0,0.01
		c0,0,0,0.01,0,0.01c0,0,0,0,0,0c0,0,0,0,0,0c0,0,0,0.01,0.01,0.01c0,0,0,0.01,0,0.01c0,0,0,0.01,0,0.01c0,0.01-0.01,0.02-0.02,0.02
		l-0.02,0c-0.01,0-0.02,0.02-0.01,0.03l0.03,0.02c0.01,0.01,0.01,0.02,0,0.03l-0.04,0.01c-0.01,0-0.01,0.02,0,0.03l0.04,0.01
		c0.01,0,0.01,0.02,0,0.03L8.07,11.2c-0.01,0.01-0.01,0.03,0.01,0.03l0.04,0c0.01,0,0.02,0.01,0.01,0.02l-0.02,0.03
		c-0.01,0.01,0,0.03,0.02,0.02l0.04-0.01c0.01,0,0.02,0.01,0.02,0.02l-0.01,0.04c-0.01,0.01,0.01,0.03,0.02,0.02l0.03-0.02
		c0.01-0.01,0.02,0,0.02,0.01l0,0.04c0,0.01,0.02,0.02,0.03,0.01l0.03-0.03c0.01-0.01,0.02,0,0.02,0.01l0.01,0.04
		c0,0.01,0.02,0.02,0.03,0l0.02-0.03c0.01-0.01,0.02-0.01,0.03,0l0.02,0.03c0.01,0.01,0.03,0.01,0.03,0l0.01-0.04
		c0-0.01,0.02-0.02,0.02-0.01L8.49,11.4z"/>
	<path class="st0" d="M8.29,11.15C8.29,11.15,8.29,11.15,8.29,11.15c0.01,0.02,0.03,0.03,0.04,0.03c0,0,0.01,0.01,0.01,0.01
		c0,0,0,0,0,0c0,0,0,0,0,0c0.01,0.01,0.03,0.01,0.04,0.01c0.01,0,0.01,0,0.02,0c0,0,0,0,0,0c0,0,0.01,0,0.01,0c0,0,0.01,0,0.01,0
		c0,0,0,0,0,0c0.03-0.01,0.06-0.02,0.08-0.04l1.86-1.74L10.36,9.4l-0.02-0.02L10.3,9.34l0,0l-0.94,0.88l-0.92,0.86
		C8.43,11.1,8.42,11.1,8.41,11.1c-0.01,0-0.02,0-0.02,0c0,0,0,0-0.01,0c0,0-0.01,0-0.01-0.01c-0.01-0.01-0.01-0.02-0.01-0.03V6.26
		h-0.1h0v4.79c0,0.02,0,0.03,0.01,0.05c0,0,0,0.01,0,0.01c0,0.01,0.01,0.02,0.02,0.03C8.28,11.14,8.29,11.15,8.29,11.15"/>
	<path class="st1" d="M7.64,11.05V6.26H7.58H7.55H7.49v4.5c0,0.01-0.02,0.02-0.02,0.01L5.73,9.13c0,0,0,0,0,0l-0.27,0.3c0,0,0,0,0,0
		l1.87,1.75c0,0,0,0.01,0,0.01c0,0.01,0,0.02,0.01,0.02l0.01,0c0.01,0,0.01,0,0.02,0.01c0,0,0,0,0.01,0.01
		c0.01,0.01,0.01,0.02,0,0.02l-0.01,0.02c-0.01,0.01,0,0.03,0.01,0.02l0.04-0.01c0.01,0,0.02,0.01,0.02,0.02l-0.02,0.04
		c-0.01,0.01,0.01,0.03,0.02,0.02l0.03-0.02c0.01-0.01,0.02,0,0.02,0.01l-0.01,0.04c0,0.01,0.02,0.02,0.02,0.01l0.03-0.03
		c0.01-0.01,0.02,0,0.02,0.01l0.01,0.04c0,0.01,0.02,0.02,0.03,0l0.02-0.03c0.01-0.01,0.02-0.01,0.03,0l0.02,0.03
		c0.01,0.01,0.02,0.01,0.03,0l0.01-0.04c0-0.01,0.02-0.02,0.03-0.01l0.03,0.03c0.01,0.01,0.03,0,0.03-0.01l0-0.04
		c0-0.01,0.01-0.02,0.02-0.01l0.03,0.02c0.01,0.01,0.03,0,0.02-0.02l-0.01-0.04c0-0.01,0.01-0.02,0.02-0.02l0.04,0.01
		c0.01,0,0.02-0.01,0.02-0.02l-0.02-0.03c-0.01-0.01,0-0.02,0.01-0.02l0.04,0c0.01,0,0.02-0.02,0.01-0.03l-0.03-0.02
		c-0.01-0.01-0.01-0.02,0-0.03l0.04-0.01c0.01,0,0.01-0.02,0-0.03L7.9,11.1c-0.01,0-0.01-0.02,0-0.03l0.03-0.02
		c0.01-0.01,0.01-0.03-0.01-0.03l-0.02,0c-0.01,0-0.02-0.01-0.02-0.02c0-0.01,0-0.01,0-0.01c0,0,0-0.01,0-0.01c0,0,0-0.01,0.01-0.01
		c0,0,0,0,0,0c0,0,0,0,0,0c0,0,0-0.01,0-0.01c0,0,0,0,0-0.01c0,0,0-0.01-0.01-0.01v0c0,0-0.01-0.01-0.01-0.01V6.26H7.75v4.79
		c0,0.03-0.01,0.05-0.02,0.07c0,0.01-0.01,0.01-0.01,0.01c0,0,0,0.01-0.01,0.01c0,0,0,0,0,0h0c0,0,0,0,0,0
		c-0.02,0.02-0.03,0.03-0.06,0.04c0,0,0,0,0,0c0,0,0,0,0,0c0,0,0,0,0,0c0,0,0,0,0,0c-0.02,0.01-0.04,0.01-0.06,0.01
		c-0.01,0-0.01,0-0.02,0c0,0-0.01,0-0.01,0c-0.03-0.01-0.06-0.02-0.08-0.04l-1.16-1.08L5.61,9.42l0,0l0.07-0.07h0l1.49,1.38
		l0.38,0.36c0,0,0,0,0,0c0,0,0.01,0.01,0.01,0.01c0.01,0,0.02,0,0.03,0c0,0,0,0,0,0c0,0,0,0,0,0c0,0,0.01,0,0.01-0.01
		C7.64,11.08,7.64,11.07,7.64,11.05"/>
	<path class="st0" d="M7.61,11.1c-0.01,0-0.02,0-0.03,0c0,0-0.01,0-0.01-0.01c0,0,0,0,0,0l-0.38-0.36L5.68,9.35v0L5.61,9.42l0,0
		l0.72,0.65l1.16,1.08c0.02,0.02,0.05,0.04,0.08,0.04c0,0,0.01,0,0.01,0c0.01,0,0.01,0,0.02,0c0.02,0,0.04,0,0.06-0.01c0,0,0,0,0,0
		c0,0,0,0,0,0c0,0,0,0,0,0c0,0,0,0,0,0c0.02-0.01,0.04-0.02,0.06-0.04l0,0c0,0,0,0,0,0c0,0,0-0.01,0.01-0.01
		c0,0,0.01-0.01,0.01-0.02c0.01-0.02,0.02-0.05,0.02-0.07V6.26h-0.1v4.79c0,0.02-0.01,0.03-0.02,0.04
		C7.62,11.09,7.62,11.1,7.61,11.1C7.61,11.1,7.61,11.1,7.61,11.1C7.61,11.1,7.61,11.1,7.61,11.1"/>
	<path class="st2" d="M8.19,6.11c0,0.03-0.02,0.05-0.05,0.05c-0.03,0-0.05-0.02-0.05-0.05V5.77c0-0.03,0.02-0.05,0.05-0.05
		c0.03,0,0.05,0.02,0.05,0.05V6.11z M7.9,6.11c0,0.03-0.02,0.05-0.05,0.05c-0.03,0-0.05-0.02-0.05-0.05V5.77
		c0-0.03,0.02-0.05,0.05-0.05c0.03,0,0.05,0.02,0.05,0.05V6.11z M7.61,6.11c0,0.03-0.02,0.05-0.05,0.05c-0.03,0-0.05-0.02-0.05-0.05
		V5.77c0-0.03,0.02-0.05,0.05-0.05c0.03,0,0.05,0.02,0.05,0.05V6.11z M7.31,6.11c0,0.03-0.02,0.05-0.05,0.05
		c-0.03,0-0.05-0.02-0.05-0.05V5.77c0-0.03,0.02-0.05,0.05-0.05c0.03,0,0.05,0.02,0.05,0.05V6.11z M8.39,5.77
		c0-0.03,0.02-0.05,0.05-0.05c0.03,0,0.05,0.02,0.05,0.05v0.34c0,0.03-0.02,0.05-0.05,0.05c-0.03,0-0.05-0.02-0.05-0.05V5.77z
		 M8.69,5.77c0-0.03,0.02-0.05,0.05-0.05c0.03,0,0.05,0.02,0.05,0.05v0.34c0,0.03-0.02,0.05-0.05,0.05c-0.03,0-0.05-0.02-0.05-0.05
		V5.77z M8.36,6.26L8.36,6.26h0.15H9V5.79c0-0.1-0.08-0.18-0.17-0.18H8.51H8.45H8.42H8.36h-0.1H8.12H8H7.88H7.75h-0.1h0H7.49H7.18
		C7.08,5.62,7,5.7,7,5.79v0.47h0.49h0.06h0.03h0.06h0h0.1h0.13H8h0.12h0.13H8.36z"/>
	<path class="st0" d="M7.27,5.73c-0.03,0-0.05,0.02-0.05,0.05v0.34c0,0.03,0.02,0.05,0.05,0.05c0.03,0,0.05-0.02,0.05-0.05V5.77
		C7.32,5.75,7.29,5.73,7.27,5.73"/>
	<path class="st0" d="M7.56,5.73c-0.03,0-0.05,0.02-0.05,0.05v0.34c0,0.03,0.02,0.05,0.05,0.05c0.03,0,0.05-0.02,0.05-0.05V5.77
		C7.61,5.75,7.59,5.73,7.56,5.73"/>
	<path class="st0" d="M7.85,5.73c-0.03,0-0.05,0.02-0.05,0.05v0.34c0,0.03,0.02,0.05,0.05,0.05c0.03,0,0.05-0.02,0.05-0.05V5.77
		C7.9,5.75,7.88,5.73,7.85,5.73"/>
	<path class="st0" d="M8.15,5.73c-0.03,0-0.05,0.02-0.05,0.05v0.34c0,0.03,0.02,0.05,0.05,0.05c0.03,0,0.05-0.02,0.05-0.05V5.77
		C8.19,5.75,8.17,5.73,8.15,5.73"/>
	<path class="st0" d="M8.44,6.16c0.03,0,0.05-0.02,0.05-0.05V5.77c0-0.03-0.02-0.05-0.05-0.05c-0.03,0-0.05,0.02-0.05,0.05v0.34
		C8.39,6.14,8.41,6.16,8.44,6.16"/>
	<path class="st0" d="M8.73,6.16c0.03,0,0.05-0.02,0.05-0.05V5.77c0-0.03-0.02-0.05-0.05-0.05c-0.03,0-0.05,0.02-0.05,0.05v0.34
		C8.69,6.14,8.71,6.16,8.73,6.16"/>
	<path class="st3" d="M3.5,11.09l-0.24-0.41l0.06-0.04c0.14-0.08,0.26-0.04,0.35,0.12c0.04,0.07,0.07,0.15,0.06,0.24l0.22-0.03
		c0-0.1-0.03-0.22-0.1-0.33c-0.17-0.29-0.41-0.37-0.67-0.22l-0.61,0.35l0.13,0.23l0.36-0.21l0.24,0.41L3.5,11.09z"/>
	<path class="st3" d="M4.28,11.98l-0.12,0.11L3.8,11.71l0.12-0.11c0.14-0.13,0.28-0.12,0.39-0.01C4.42,11.7,4.42,11.84,4.28,11.98
		 M4.47,11.43c-0.22-0.23-0.5-0.25-0.75-0.01l-0.46,0.43l0.18,0.19l0.2-0.19l0.36,0.38l-0.2,0.19l0.18,0.19l0.46-0.43
		C4.7,11.94,4.69,11.66,4.47,11.43"/>
	<path class="st3" d="M5.58,12.3c-0.13-0.08-0.26-0.09-0.38-0.04l0.07-0.12l-0.22-0.13l-0.59,0.99l0.23,0.14l0.33-0.56
		c0.1-0.17,0.25-0.2,0.38-0.12c0.13,0.08,0.16,0.2,0.07,0.36l-0.34,0.57l0.23,0.14l0.35-0.58C5.87,12.68,5.82,12.44,5.58,12.3"/>
	<path class="st3" d="M6.8,13.25c-0.03,0.12-0.13,0.17-0.29,0.12L6.3,13.31l0.11-0.38l0.21,0.06C6.77,13.04,6.83,13.13,6.8,13.25
		 M6.69,12.79l-0.48-0.14L5.9,13.76l0.26,0.07l0.09-0.3l0.22,0.06c0.3,0.08,0.52-0.02,0.59-0.26C7.13,13.08,6.99,12.87,6.69,12.79"
		/>
	<polygon class="st3" points="7.65,12.95 7.38,12.94 7.32,14.09 8.16,14.13 8.17,13.91 7.6,13.88 	"/>
	<polygon class="st3" points="12.41,11.88 11.88,11.39 12.01,11.25 11.85,11.1 11.41,11.6 11.56,11.74 11.7,11.59 12.23,12.08 
		12.1,12.22 12.26,12.37 12.7,11.87 12.55,11.73 	"/>
	<path class="st3" d="M13.1,10.63c0.04,0.11,0.03,0.22-0.03,0.32c-0.11,0.19-0.32,0.24-0.5,0.13c-0.19-0.11-0.24-0.32-0.13-0.5
		c0.06-0.1,0.15-0.16,0.26-0.18l-0.05-0.23c-0.17,0.03-0.31,0.13-0.42,0.3c-0.18,0.31-0.1,0.66,0.19,0.84
		c0.3,0.18,0.65,0.07,0.83-0.23c0.1-0.17,0.12-0.35,0.06-0.51L13.1,10.63z"/>
	<path class="st3" d="M4.72,4.32c0.15-0.13,0.23-0.3,0.22-0.47L4.71,3.84c0,0.12-0.04,0.22-0.13,0.29C4.42,4.28,4.21,4.26,4.06,4.1
		C3.92,3.94,3.93,3.72,4.1,3.58C4.18,3.51,4.28,3.48,4.4,3.49l0.02-0.23C4.26,3.24,4.09,3.29,3.94,3.42
		c-0.27,0.24-0.3,0.6-0.08,0.86C4.09,4.54,4.45,4.55,4.72,4.32"/>
	<path class="st3" d="M5.29,2.79c0.14-0.07,0.28-0.03,0.36,0.14l0.07,0.15L5.26,3.31L5.19,3.17C5.1,2.99,5.15,2.86,5.29,2.79
		 M5.25,3.87l0.23-0.12L5.36,3.5l0.47-0.24l0.12,0.25L6.19,3.4L5.9,2.83C5.75,2.52,5.47,2.45,5.19,2.59
		C4.91,2.73,4.81,2.99,4.96,3.31L5.25,3.87z"/>
	<path class="st3" d="M6.76,2.29c0.16-0.03,0.25,0.02,0.28,0.14C7.07,2.55,7,2.64,6.84,2.68L6.63,2.72L6.55,2.33L6.76,2.29z
		 M6.74,3.24L6.68,2.93L6.9,2.89c0.3-0.06,0.45-0.26,0.4-0.51c-0.05-0.25-0.27-0.37-0.57-0.3l-0.49,0.1L6.48,3.3L6.74,3.24z"/>
	<path class="st3" d="M7.99,2.15L7.97,3.09L8.24,3.1l0.02-0.94c0.11,0.02,0.22,0.06,0.31,0.12l0.09-0.2
		c-0.16-0.1-0.35-0.15-0.54-0.15c-0.19,0-0.38,0.04-0.54,0.13l0.09,0.2C7.77,2.2,7.87,2.17,7.99,2.15"/>
	<path class="st3" d="M9.23,2.56C9.28,2.37,9.4,2.31,9.55,2.35C9.71,2.39,9.78,2.51,9.73,2.7L9.69,2.86L9.18,2.72L9.23,2.56z
		 M9.13,2.93l0.51,0.14L9.57,3.33L9.82,3.4l0.16-0.61c0.09-0.34-0.07-0.58-0.37-0.66c-0.3-0.08-0.56,0.05-0.65,0.39L8.8,3.13
		l0.25,0.07L9.13,2.93z"/>
	<polygon class="st3" points="10.73,3.62 10.56,3.53 10.89,2.89 11.07,2.98 11.16,2.79 10.57,2.49 10.48,2.68 10.65,2.77 
		10.32,3.41 10.14,3.32 10.05,3.51 10.64,3.81 	"/>
	<path class="st3" d="M11.06,4.11l0.41-0.5c0.13-0.16,0.28-0.15,0.39-0.06c0.11,0.1,0.13,0.22,0.01,0.37l-0.43,0.51l0.2,0.17
		l0.43-0.52c0.21-0.25,0.19-0.48-0.02-0.66c-0.12-0.1-0.24-0.13-0.37-0.1l0.09-0.11l-0.2-0.17l-0.74,0.88L11.06,4.11z"/>
	<path class="st1" d="M2.7,9.72c0.01,0,0.02,0,0.03,0C2.78,9.7,2.81,9.65,2.79,9.6C2.64,9.09,2.56,8.56,2.56,8.03
		c0-1.08,0.32-2.13,0.92-3.02c0.03-0.04,0.02-0.1-0.03-0.13C3.41,4.85,3.35,4.86,3.32,4.9C2.7,5.83,2.37,6.91,2.37,8.03
		c0,0.55,0.08,1.1,0.24,1.62C2.62,9.69,2.66,9.72,2.7,9.72"/>
	<path class="st1" d="M12.68,4.9c-0.03-0.04-0.09-0.06-0.13-0.03c-0.04,0.03-0.06,0.09-0.03,0.13c0.6,0.9,0.92,1.94,0.92,3.02
		c0,0.53-0.08,1.06-0.23,1.57c-0.02,0.05,0.01,0.1,0.06,0.12c0.01,0,0.02,0,0.03,0c0.04,0,0.08-0.03,0.09-0.07
		c0.16-0.52,0.24-1.07,0.24-1.62C13.63,6.91,13.3,5.83,12.68,4.9"/>
	<path class="st3" d="M8.75,13.58l-0.03-0.16c-0.04-0.19,0.05-0.3,0.21-0.33c0.15-0.03,0.28,0.04,0.31,0.24l0.03,0.16L8.75,13.58z
		 M8.88,12.86c-0.31,0.06-0.48,0.28-0.42,0.63l0.11,0.62l0.26-0.05l-0.05-0.27L9.3,13.7l0.05,0.27l0.26-0.05L9.5,13.3
		C9.44,12.96,9.19,12.81,8.88,12.86"/>
	<path class="st3" d="M9.98,12.9c-0.03-0.07,0-0.14,0.14-0.21c0.09-0.04,0.21-0.06,0.33-0.05l-0.01-0.22
		c-0.12-0.02-0.27,0.01-0.41,0.07c-0.3,0.13-0.37,0.35-0.29,0.53c0.18,0.39,0.72-0.02,0.81,0.17c0.03,0.06-0.01,0.14-0.15,0.2
		c-0.13,0.06-0.28,0.07-0.39,0.05l0,0.22c0.13,0.03,0.31,0,0.48-0.07c0.3-0.14,0.38-0.35,0.3-0.53C10.61,12.69,10.06,13.1,9.98,12.9
		"/>
	<path class="st3" d="M11.46,11.99l-0.05-0.21c-0.18,0.02-0.36,0.09-0.52,0.21c-0.15,0.11-0.28,0.27-0.35,0.44l0.19,0.11
		c0.05-0.11,0.11-0.2,0.19-0.28L11.49,13l0.21-0.16l-0.56-0.75C11.25,12.04,11.35,12,11.46,11.99"/>
</g>
</svg>
